<?xml version="1.0" encoding="UTF-8" standalone="no"?>
<!-- Created with Inkscape (http://www.inkscape.org/) -->

<svg
   xmlns:dc="http://purl.org/dc/elements/1.1/"
   xmlns:cc="http://creativecommons.org/ns#"
   xmlns:rdf="http://www.w3.org/1999/02/22-rdf-syntax-ns#"
   xmlns:svg="http://www.w3.org/2000/svg"
   xmlns="http://www.w3.org/2000/svg"
   xmlns:sodipodi="http://sodipodi.sourceforge.net/DTD/sodipodi-0.dtd"
   xmlns:inkscape="http://www.inkscape.org/namespaces/inkscape"
   width="470"
   height="135"
   viewBox="0 0 124.35417 35.718749"
   version="1.1"
   id="svg8"
   sodipodi:docname="logo_black.svg"
   inkscape:version="0.92.2 5c3e80d, 2017-08-06">
  <defs
     id="defs2">
    <inkscape:path-effect
       effect="spiro"
       id="path-effect3829"
       is_visible="true" />
    <clipPath
       clipPathUnits="userSpaceOnUse"
       id="clipPath4762">
      <rect
         style="opacity:0;stroke-width:0.5;stroke-miterlimit:4;stroke-dasharray:none"
         id="rect4764"
         width="212.21198"
         height="102.6315"
         x="-2.6082401"
         y="56.862423" />
    </clipPath>
  </defs>
  <sodipodi:namedview
     id="base"
     pagecolor="#ffffff"
     bordercolor="#666666"
     borderopacity="1.0"
     inkscape:pageopacity="0.0"
     inkscape:pageshadow="2"
     inkscape:zoom="0.98994949"
     inkscape:cx="270.40422"
     inkscape:cy="157.53366"
     inkscape:document-units="px"
     inkscape:current-layer="layer1"
     showgrid="false"
     inkscape:object-paths="false"
     inkscape:snap-bbox="false"
     inkscape:window-width="1280"
     inkscape:window-height="755"
     inkscape:window-x="0"
     inkscape:window-y="1"
     inkscape:window-maximized="1"
     units="px"
     fit-margin-top="-4.1"
     fit-margin-left="-200"
     fit-margin-right="-100"
     fit-margin-bottom="0"
     inkscape:pagecheckerboard="true" />
  <metadata
     id="metadata5">
    <rdf:RDF>
      <cc:Work
         rdf:about="">
        <dc:format>image/svg+xml</dc:format>
        <dc:type
           rdf:resource="http://purl.org/dc/dcmitype/StillImage" />
        <dc:title></dc:title>
      </cc:Work>
    </rdf:RDF>
  </metadata>
  <g
     inkscape:label="Layer 1"
     inkscape:groupmode="layer"
     id="layer1"
     transform="translate(-50.308427,-123.77519)">
    <text
       xml:space="preserve"
       style="font-style:normal;font-weight:normal;font-size:35.27777481px;line-height:1.25;font-family:sans-serif;letter-spacing:0px;word-spacing:0px;fill:#FFFFFF;fill-opacity:1;stroke:none;stroke-width:0.26458332"
       x="64.482742"
       y="150.64731"
       id="text12"><tspan
         sodipodi:role="line"
         id="tspan10"
         x="64.482742"
         y="150.64731"
         style="font-style:normal;font-variant:normal;font-weight:normal;font-stretch:normal;font-size:35.27777863px;font-family:Righteous;-inkscape-font-specification:'Righteous, Normal';font-variant-ligatures:normal;font-variant-caps:normal;font-variant-numeric:normal;font-feature-settings:normal;text-align:start;writing-mode:lr-tb;text-anchor:start;stroke-width:0.26458332">Astra</tspan></text>
    <path
       id="path121"
       d="m 173.87918,146.89275 c -0.25453,-0.099 -0.50598,-0.18607 -0.75571,-0.26332 -5.41175,-1.67514 -9.76963,1.49687 -11.91831,4.46985 l 2.05385,3.89428 c 3.79462,-0.16594 8.73977,-1.886 10.39699,-7.23989 0.0856,-0.27655 0.15713,-0.56441 0.22319,-0.86092 z m -9.85705,6.7244 -1.25234,-2.37523 c 1.32511,-1.56117 4.69462,-4.71442 9.49076,-3.48805 -1.28254,3.58358 -4.47648,5.46072 -8.23842,5.86328 z m 3.14336,2.03288 c -0.417,0.12837 -0.82465,0.23408 -1.22113,0.31855 -0.29124,0.52367 -0.77569,1.03005 -1.36677,1.40601 0.11183,-0.36274 0.12299,-0.75973 0.0591,-1.17995 -0.35479,0.0448 -0.68819,0.0753 -1.00404,0.0943 0.0827,1.20377 -0.58645,1.86635 -1.38475,2.43561 0.83452,0.19109 1.81386,0.0566 2.69638,-0.40924 0.95319,-0.502 1.78798,-1.39314 2.22117,-2.66528 z m -6.17717,-6.37272 c -0.31034,-0.28856 -0.64288,-0.5005 -1.00436,-0.61395 0.63768,-0.27186 1.32243,-0.38614 1.915,-0.33491 0.30524,-0.28664 0.63356,-0.56074 0.97142,-0.82569 -1.29393,-0.36266 -2.50201,-0.1761 -3.45594,0.32566 -0.88228,0.46519 -1.54596,1.19827 -1.86027,1.99388 0.921,-0.33802 1.84711,-0.51521 2.79249,0.23432 0.20104,-0.26245 0.41399,-0.52278 0.64166,-0.77931 z m 4.73948,1.92393 c -0.17093,-0.32195 -0.0476,-0.72053 0.27537,-0.88961 0.32155,-0.16948 0.71937,-0.0462 0.8896,0.27537 0.1699,0.32241 0.0464,0.721 -0.27559,0.89031 -0.32231,0.17004 -0.72031,0.0469 -0.88946,-0.27584 z m 4.07788,-2.15008 c -0.33903,-0.64302 -1.13621,-0.88977 -1.77923,-0.55074 -0.64368,0.3388 -0.89067,1.1367 -0.55094,1.77992 0.33879,0.64371 1.13599,0.89047 1.77993,0.55096 0.64228,-0.33925 0.88927,-1.13715 0.55048,-1.78007 z m -1.57331,0.82954 c -0.11815,-0.22521 -0.0317,-0.50457 0.19279,-0.62295 0.22393,-0.1193 0.50478,-0.0324 0.62433,0.19324 0.11758,0.22424 0.0305,0.50345 -0.19279,0.62294 -0.22584,0.11794 -0.50596,0.0312 -0.62433,-0.19323 z"
       inkscape:connector-curvature="0"
       style="stroke-width:0.73850453;fill:#FFFFFF"
       sodipodi:nodetypes="ccccccccccccccccccccccccccccccccccccccccccccc" />
    <path
       id="path4712"
       d="m 295.17447,109.87716 c -1299.03817,116.49177 -649.51908,58.24589 0,0 z M 151.34935,122.476 c -19.08005,0.47159 -32.54468,1.08781 -54.9381,1.08781 -34.718643,0 -54.667903,-1.79615 -54.667903,-4.05247 0,-1.13309 0.27902,-2.38219 15.81544,-3.57786 -34.72932,3.91972 31.58137,7.19347 91.991583,2.98077 l 0.58662,1.15369 c -9.96755,0.52612 -33.3592,1.68974 -58.797559,2.19411 14.581769,0.0435 47.075329,-0.0943 59.519479,-0.74134 z"
       inkscape:connector-curvature="0"
       style="stroke-width:2.87724948;fill:#FFFFFF"
       sodipodi:nodetypes="cccsscccccc"
       clip-path="url(#clipPath4762)"
       transform="translate(10.054166,32.808348)" />
    <rect
       style="opacity:0;stroke-width:0.5;stroke-miterlimit:4;stroke-dasharray:none;fill:#FFFFFF"
       id="rect4758"
       width="182.2778"
       height="72.697311"
       x="19.307858"
       y="76.640373" />
  </g>
</svg>
