<?xml version="1.0" encoding="UTF-8" standalone="no"?>
<svg
   xmlns:dc="http://purl.org/dc/elements/1.1/"
   xmlns:cc="http://creativecommons.org/ns#"
   xmlns:rdf="http://www.w3.org/1999/02/22-rdf-syntax-ns#"
   xmlns:svg="http://www.w3.org/2000/svg"
   xmlns="http://www.w3.org/2000/svg"
   xmlns:sodipodi="http://sodipodi.sourceforge.net/DTD/sodipodi-0.dtd"
   xmlns:inkscape="http://www.inkscape.org/namespaces/inkscape"
   width="50"
   height="24"
   viewBox="0 0 50 24"
   version="1.1"
   id="svg25"
   sodipodi:docname="sideways_rocket.svg"
   inkscape:version="0.92.2 5c3e80d, 2017-08-06">
  <metadata
     id="metadata31">
    <rdf:RDF>
      <cc:Work
         rdf:about="">
        <dc:format>image/svg+xml</dc:format>
        <dc:type
           rdf:resource="http://purl.org/dc/dcmitype/StillImage" />
        <dc:title></dc:title>
      </cc:Work>
    </rdf:RDF>
  </metadata>
  <defs
     id="defs29" />
  <sodipodi:namedview
     pagecolor="#ffffff"
     bordercolor="#666666"
     borderopacity="1"
     objecttolerance="10"
     gridtolerance="10"
     guidetolerance="10"
     inkscape:pageopacity="0"
     inkscape:pageshadow="2"
     inkscape:window-width="1205"
     inkscape:window-height="761"
     id="namedview27"
     showgrid="false"
     inkscape:zoom="13.906433"
     inkscape:cx="15.246647"
     inkscape:cy="6.1707609"
     inkscape:window-x="61"
     inkscape:window-y="0"
     inkscape:window-maximized="0"
     inkscape:current-layer="svg25" />
     <path
        style="fill:#FFFFFF"
        sodipodi:nodetypes="ccccsccccccccccccccccccccccccccscccsccccc"
        inkscape:connector-curvature="0"
        id="rocket"
        d="M 47.624447,12.610485 C 47.38191,12.331177 47.135836,12.068134 46.885521,11.817818 41.461304,6.393602 34.238209,7.4408272 29.786971,9.6448792 l 7.08e-4,5.9616168 c 4.649934,2.197688 11.659483,3.260469 17.025717,-2.105764 0.277186,-0.277186 0.543765,-0.577706 0.811051,-0.890247 z M 31.571002,14.43977 v -3.635943 c 2.573161,-1.0330828 8.60054,-2.682056 13.570793,1.81585 -3.799284,3.482501 -8.81055,3.713725 -13.570793,1.820093 z m 2.481238,4.420124 c -0.580535,-0.109601 -1.135614,-0.240416 -1.663823,-0.389615 -0.679529,0.443355 -1.579676,0.743876 -2.525078,0.820951 0.362746,-0.36416 0.627204,-0.832265 0.816001,-1.37603 -0.453255,-0.170413 -0.871862,-0.344361 -1.262185,-0.521138 -0.661145,1.494117 -1.880904,1.865348 -3.19683,2.042832 0.878934,0.755897 2.136877,1.213395 3.488158,1.212688 1.458761,7.07e-4 3.021467,-0.539523 4.343757,-1.789688 z M 30.677926,7.3255688 C 30.488421,6.783925 30.223963,6.3200629 29.862632,5.9559029 c 0.935502,0.077075 1.827871,0.3726453 2.505279,0.8082231 0.546594,-0.1506138 1.112986,-0.271529 1.685036,-0.3754737 -1.320876,-1.251579 -2.885703,-1.7911015 -4.345172,-1.7925157 -1.350573,0 -2.608516,0.4589123 -3.48745,1.2133952 1.316633,0.1767767 2.537806,0.549422 3.19683,2.0442457 0.406586,-0.1873833 0.8259,-0.3648671 1.260771,-0.5282087 z m 4.461844,5.2976442 c -0.0014,-0.493561 0.398101,-0.893076 0.891661,-0.891662 0.492147,0 0.890955,0.398808 0.891662,0.891662 0,0.49356 -0.399515,0.893075 -0.892369,0.892368 -0.49356,0 -0.892368,-0.398808 -0.890954,-0.892368 z m 6.242338,0 c 0,-0.984293 -0.79903,-1.783324 -1.783323,-1.783324 -0.985,-7.07e-4 -1.784737,0.799031 -1.78403,1.784031 -7.07e-4,0.984999 0.798323,1.78403 1.78403,1.78403 0.983586,-7.07e-4 1.783323,-0.800445 1.783323,-1.784737 z m -2.408405,0 c 7.07e-4,-0.344361 0.280721,-0.624376 0.624375,-0.624376 0.343654,-0.0014 0.625082,0.280015 0.62579,0.62579 -7.08e-4,0.342947 -0.281429,0.622254 -0.624376,0.624375 -0.345068,-0.0014 -0.625789,-0.282136 -0.625789,-0.625789 z" />

       <path
          id="trail"
          d="M 28.002234,14.413607 1.5590769,12.5485 28.001527,10.727459 v 1.081874 L 14.251 12.548 L 28.002, 13.282 z"
          style="fill:#FFFFFF" />
</svg>
